<svg width="58" height="61" viewBox="0 0 58 61" fill="none" xmlns="http://www.w3.org/2000/svg">
<ellipse cx="28.8915" cy="30.5" rx="28.8915" ry="30.5" fill="#C7D941"/>
<path d="M14.1477 40.8906V48H12.6878V40.8906H14.1477ZM17.2088 43.8447V48H15.8026V42.7168H17.121L17.2088 43.8447ZM17.0038 45.1729H16.6229C16.6229 44.7822 16.6734 44.4307 16.7743 44.1182C16.8752 43.8024 17.0168 43.5339 17.1991 43.3125C17.3814 43.0879 17.5978 42.917 17.8485 42.7998C18.1024 42.6794 18.3856 42.6191 18.6981 42.6191C18.9455 42.6191 19.1717 42.6549 19.3768 42.7266C19.5819 42.7982 19.7577 42.9121 19.9042 43.0684C20.0539 43.2246 20.1678 43.4313 20.246 43.6885C20.3273 43.9456 20.368 44.2598 20.368 44.6309V48H18.952V44.626C18.952 44.3916 18.9195 44.2093 18.8544 44.0791C18.7893 43.9489 18.6932 43.8577 18.5663 43.8057C18.4426 43.7503 18.2896 43.7227 18.1073 43.7227C17.9185 43.7227 17.7541 43.7601 17.6141 43.835C17.4774 43.9098 17.3635 44.014 17.2723 44.1475C17.1844 44.2777 17.1177 44.4307 17.0721 44.6064C17.0266 44.7822 17.0038 44.971 17.0038 45.1729ZM23.6294 48H22.2133V42.248C22.2133 41.8477 22.2915 41.5107 22.4477 41.2373C22.6072 40.9606 22.8302 40.7523 23.1167 40.6123C23.4064 40.4691 23.7498 40.3975 24.1469 40.3975C24.2771 40.3975 24.4025 40.4072 24.5229 40.4268C24.6434 40.443 24.7605 40.4642 24.8745 40.4902L24.8598 41.5498C24.798 41.5335 24.7329 41.5221 24.6645 41.5156C24.5962 41.5091 24.5164 41.5059 24.4253 41.5059C24.256 41.5059 24.1111 41.5352 23.9907 41.5938C23.8735 41.6491 23.784 41.7321 23.7221 41.8428C23.6603 41.9535 23.6294 42.0885 23.6294 42.248V48ZM24.684 42.7168V43.7129H21.4272V42.7168H24.684ZM28.6729 46.8086V44.4551C28.6729 44.2858 28.6452 44.141 28.5899 44.0205C28.5346 43.8968 28.4483 43.8008 28.3311 43.7324C28.2172 43.6641 28.0691 43.6299 27.8868 43.6299C27.7305 43.6299 27.5954 43.6576 27.4815 43.7129C27.3676 43.765 27.2797 43.8415 27.2178 43.9424C27.156 44.04 27.1251 44.1556 27.1251 44.2891H25.7188C25.7188 44.0645 25.7709 43.8512 25.8751 43.6494C25.9792 43.4476 26.1306 43.2702 26.3292 43.1172C26.5277 42.9609 26.7637 42.8389 27.0372 42.751C27.3139 42.6631 27.6231 42.6191 27.9649 42.6191C28.3751 42.6191 28.7396 42.6875 29.0587 42.8242C29.3777 42.9609 29.6283 43.166 29.8106 43.4395C29.9962 43.7129 30.0889 44.0547 30.0889 44.4648V46.7256C30.0889 47.0153 30.1068 47.2529 30.1426 47.4385C30.1784 47.6208 30.2305 47.7803 30.2989 47.917V48H28.878C28.8096 47.8568 28.7575 47.6777 28.7217 47.4629C28.6892 47.2448 28.6729 47.0267 28.6729 46.8086ZM28.8585 44.7822L28.8682 45.5781H28.0821C27.8965 45.5781 27.7354 45.5993 27.5987 45.6416C27.462 45.6839 27.3497 45.7441 27.2618 45.8223C27.1739 45.8971 27.1088 45.985 27.0665 46.0859C27.0274 46.1868 27.0079 46.2975 27.0079 46.418C27.0079 46.5384 27.0355 46.6475 27.0909 46.7451C27.1462 46.8395 27.226 46.9144 27.3301 46.9697C27.4343 47.0218 27.5564 47.0479 27.6963 47.0479C27.9079 47.0479 28.0919 47.0055 28.2481 46.9209C28.4044 46.8363 28.5248 46.7321 28.6094 46.6084C28.6973 46.4847 28.7429 46.3675 28.7462 46.2568L29.1172 46.8525C29.0652 46.986 28.9935 47.1243 28.9024 47.2676C28.8145 47.4108 28.7022 47.5459 28.5655 47.6729C28.4288 47.7965 28.2644 47.8991 28.0723 47.9805C27.8803 48.0586 27.6524 48.0977 27.3887 48.0977C27.0534 48.0977 26.7491 48.0309 26.4756 47.8975C26.2055 47.7607 25.9906 47.5736 25.8311 47.3359C25.6749 47.0951 25.5967 46.8216 25.5967 46.5156C25.5967 46.2389 25.6488 45.9932 25.753 45.7783C25.8572 45.5635 26.0101 45.3828 26.212 45.2363C26.417 45.0866 26.6726 44.9743 26.9786 44.8994C27.2846 44.8213 27.6394 44.7822 28.043 44.7822H28.8585ZM32.9499 43.8447V48H31.5436V42.7168H32.862L32.9499 43.8447ZM32.7448 45.1729H32.3639C32.3639 44.7822 32.4144 44.4307 32.5153 44.1182C32.6162 43.8024 32.7578 43.5339 32.9401 43.3125C33.1224 43.0879 33.3389 42.917 33.5895 42.7998C33.8434 42.6794 34.1266 42.6191 34.4391 42.6191C34.6865 42.6191 34.9128 42.6549 35.1178 42.7266C35.3229 42.7982 35.4987 42.9121 35.6452 43.0684C35.7949 43.2246 35.9088 43.4313 35.987 43.6885C36.0684 43.9456 36.109 44.2598 36.109 44.6309V48H34.693V44.626C34.693 44.3916 34.6605 44.2093 34.5954 44.0791C34.5303 43.9489 34.4342 43.8577 34.3073 43.8057C34.1836 43.7503 34.0306 43.7227 33.8483 43.7227C33.6595 43.7227 33.4951 43.7601 33.3551 43.835C33.2184 43.9098 33.1045 44.014 33.0133 44.1475C32.9254 44.2777 32.8587 44.4307 32.8131 44.6064C32.7676 44.7822 32.7448 44.971 32.7448 45.1729ZM40.1663 42.7168V43.7129H37.0901V42.7168H40.1663ZM37.8518 41.4131H39.2581V46.4082C39.2581 46.5612 39.2776 46.6784 39.3167 46.7598C39.359 46.8411 39.4208 46.8981 39.5022 46.9307C39.5836 46.96 39.6861 46.9746 39.8098 46.9746C39.8977 46.9746 39.9758 46.9714 40.0442 46.9648C40.1158 46.9551 40.176 46.9453 40.2249 46.9355L40.2297 47.9707C40.1093 48.0098 39.9791 48.0407 39.8391 48.0635C39.6991 48.0863 39.5445 48.0977 39.3753 48.0977C39.066 48.0977 38.7958 48.0472 38.5647 47.9463C38.3368 47.8421 38.1611 47.6761 38.0374 47.4482C37.9137 47.2204 37.8518 46.9209 37.8518 46.5498V41.4131ZM42.8514 42.7168V48H41.4403V42.7168H42.8514ZM41.3524 41.3398C41.3524 41.1348 41.424 40.9655 41.5672 40.832C41.7105 40.6986 41.9025 40.6318 42.1434 40.6318C42.381 40.6318 42.5715 40.6986 42.7147 40.832C42.8612 40.9655 42.9344 41.1348 42.9344 41.3398C42.9344 41.5449 42.8612 41.7142 42.7147 41.8477C42.5715 41.9811 42.381 42.0479 42.1434 42.0479C41.9025 42.0479 41.7105 41.9811 41.5672 41.8477C41.424 41.7142 41.3524 41.5449 41.3524 41.3398ZM45.8979 40.5V48H44.4868V40.5H45.8979Z" fill="white"/>
<path fill-rule="evenodd" clip-rule="evenodd" d="M27.3228 28.2499H23.1204C21.7578 28.2454 20.6536 27.0842 20.6452 25.6457V16.8207C20.6452 16.3393 20.8512 15.8846 21.2 15.5774L21.9427 14.9962C22.2138 14.6934 22.2379 14.2298 22.0079 13.8916C21.7746 13.5544 21.347 13.4413 20.9909 13.6187L20.2355 14.2165C19.4675 14.841 19.0168 15.7981 19 16.8207V25.6546C19.0042 28.0547 20.847 30 23.1204 30.0044H27.3228C27.7778 30.0044 28.1434 29.614 28.1434 29.1382C28.1434 28.6569 27.7778 28.2676 27.3228 28.2676V28.2499Z" fill="white"/>
<path fill-rule="evenodd" clip-rule="evenodd" d="M38.745 16.7998C38.7324 15.7894 38.2932 14.8323 37.5462 14.1957L31.2353 8.88422C29.8474 7.70526 27.8692 7.70526 26.4824 8.88422L24.4841 10.4181C24.1059 10.7031 24.0198 11.2544 24.2908 11.6525C24.5619 12.0462 25.083 12.1372 25.4601 11.8521L27.4878 10.2528C28.2842 9.55966 29.4335 9.55966 30.2299 10.2528L36.5408 15.5643C36.9064 15.8726 37.1197 16.3318 37.1281 16.8209V25.6548C37.1281 27.0933 36.0197 28.2589 34.6613 28.2589H32.786C32.5937 28.2589 32.4414 28.0937 32.4414 27.8907V23.9091C32.4414 22.6392 31.4685 21.6077 30.2666 21.6044H27.5246C26.9457 21.6044 26.392 21.8462 25.9823 22.2798C25.5715 22.7135 25.3414 23.298 25.3414 23.9091V25.4341C25.3414 25.9099 25.7112 26.3003 26.1619 26.3003C26.6179 26.3003 26.9877 25.9099 26.9877 25.4341V23.9091C26.9835 23.7571 27.036 23.6141 27.139 23.5054C27.2378 23.4022 27.3733 23.3412 27.5162 23.3412H30.2582C30.5492 23.3412 30.7877 23.593 30.7877 23.9002V27.8907C30.7919 29.0553 31.686 29.9958 32.786 29.9958H34.6119C36.8896 29.9958 38.7324 28.046 38.7324 25.6459L38.745 16.7998Z" fill="white"/>
</svg>
