<svg width="8" height="9.5" viewBox="0 0 56 55" fill="none" xmlns="http://www.w3.org/2000/svg">
<ellipse cx="27.6285" cy="27.5" rx="27" ry="27.5" fill="#C7D941"/>
<path fill-rule="evenodd" clip-rule="evenodd" d="M28.0296 8.53133C27.0129 8.52733 26.0403 8.93033 25.322 9.64833C24.6037 10.3673 24.1998 11.3443 24.1998 12.3593C24.1958 13.9103 25.1261 15.3123 26.5578 15.9103C27.9864 16.5043 29.6351 16.1803 30.7332 15.0823C31.8283 13.9883 32.1578 12.3363 31.566 10.9023C30.9733 9.46933 29.5758 8.53133 28.0296 8.53133M25.9931 7.40633C27.9904 6.57833 30.2941 7.03933 31.8202 8.57433C33.3513 10.1053 33.8065 12.4143 32.9746 14.4143C32.1467 16.4183 30.1917 17.7233 28.0296 17.7193C25.0789 17.7113 22.6888 15.3163 22.6888 12.3593L22.6968 12.1293C22.7832 10.0523 24.0662 8.20733 25.9931 7.40633M25.9107 19.7663C27.3545 19.6453 28.8072 19.6453 30.2509 19.7663C31.0396 19.8213 31.8242 19.9343 32.5938 20.1103C34.2616 20.4463 35.3527 21.1063 35.8078 22.0743C36.1725 22.8753 36.1614 23.8013 35.7806 24.5983C35.3175 25.5673 34.2264 26.2273 32.5305 26.5713C31.766 26.7423 30.9843 26.8523 30.1957 26.9033C29.3286 27.0003 28.5912 27.0003 27.904 27.0003H27.6338C27.2449 26.9573 26.9506 26.6293 26.9506 26.2393C26.9506 25.8483 27.2449 25.5203 27.6338 25.4773H28.2335C28.8343 25.4693 29.4422 25.4423 30.047 25.3913C30.7613 25.3443 31.4716 25.2423 32.1739 25.0903C33.3745 24.8283 34.132 24.4493 34.3681 23.9463C34.5519 23.5633 34.5519 23.1173 34.3681 22.7353C34.132 22.2233 33.3745 21.8283 32.197 21.5903C31.4867 21.4303 30.7653 21.3243 30.0389 21.2813C28.6816 21.1563 27.3153 21.1563 25.958 21.2813C25.2396 21.3283 24.5253 21.4263 23.823 21.5783C22.6174 21.8443 21.872 22.2233 21.6288 22.7233C21.5384 22.9143 21.4952 23.1213 21.4952 23.3323C21.4952 23.5433 21.5384 23.7543 21.6288 23.9463C22.0448 24.5203 22.6807 24.8913 23.383 24.9773L23.4855 25.0043C23.7165 25.0823 23.8974 25.2703 23.9677 25.5123C24.0501 25.7813 23.9717 26.0783 23.7678 26.2783C23.5638 26.4773 23.2654 26.5433 22.9982 26.4533C21.8639 26.2703 20.8713 25.5943 20.2826 24.6063C19.9058 23.8093 19.9058 22.8793 20.2826 22.0823C20.7497 21.0863 21.8368 20.4463 23.5166 20.1023C24.3053 19.9303 25.106 19.8213 25.9107 19.7663" fill="white"/>
<path d="M18.5693 39.4658H16.7578V38.3232H18.5693C18.8493 38.3232 19.0772 38.2777 19.2529 38.1865C19.4287 38.0921 19.5573 37.9619 19.6387 37.7959C19.7201 37.6299 19.7607 37.4427 19.7607 37.2344C19.7607 37.0228 19.7201 36.8258 19.6387 36.6436C19.5573 36.4613 19.4287 36.3148 19.2529 36.2041C19.0772 36.0934 18.8493 36.0381 18.5693 36.0381H17.2656V42H15.8008V34.8906H18.5693C19.126 34.8906 19.6029 34.9915 20 35.1934C20.4004 35.3919 20.7064 35.667 20.918 36.0186C21.1296 36.3701 21.2354 36.7721 21.2354 37.2246C21.2354 37.6836 21.1296 38.0807 20.918 38.416C20.7064 38.7513 20.4004 39.0101 20 39.1924C19.6029 39.3747 19.126 39.4658 18.5693 39.4658ZM24.9215 42.0977C24.5113 42.0977 24.1435 42.0326 23.818 41.9023C23.4925 41.7689 23.2158 41.585 22.9879 41.3506C22.7633 41.1162 22.5908 40.8444 22.4703 40.5352C22.3499 40.2227 22.2897 39.8906 22.2897 39.5391V39.3438C22.2897 38.9434 22.3466 38.5771 22.4606 38.2451C22.5745 37.9131 22.7372 37.625 22.9488 37.3809C23.1637 37.1367 23.4241 36.9495 23.7301 36.8193C24.0361 36.6859 24.3811 36.6191 24.7652 36.6191C25.1396 36.6191 25.4716 36.681 25.7613 36.8047C26.051 36.9284 26.2936 37.1042 26.4889 37.332C26.6874 37.5599 26.8372 37.8333 26.9381 38.1523C27.039 38.4681 27.0895 38.8197 27.0895 39.207V39.793H22.8902V38.8555H25.7076V38.748C25.7076 38.5527 25.6718 38.3786 25.6002 38.2256C25.5318 38.0693 25.4277 37.9456 25.2877 37.8545C25.1477 37.7633 24.9687 37.7178 24.7506 37.7178C24.565 37.7178 24.4055 37.7585 24.2721 37.8398C24.1386 37.9212 24.0296 38.0352 23.9449 38.1816C23.8635 38.3281 23.8017 38.5007 23.7594 38.6992C23.7203 38.8945 23.7008 39.1094 23.7008 39.3438V39.5391C23.7008 39.7507 23.7301 39.946 23.7887 40.125C23.8505 40.304 23.9368 40.4587 24.0475 40.5889C24.1614 40.7191 24.2981 40.82 24.4576 40.8916C24.6204 40.9632 24.8043 40.999 25.0094 40.999C25.2633 40.999 25.4993 40.9502 25.7174 40.8525C25.9387 40.7516 26.1292 40.6003 26.2887 40.3984L26.9723 41.1406C26.8616 41.3001 26.7102 41.4531 26.5182 41.5996C26.3294 41.7461 26.1015 41.8665 25.8346 41.9609C25.5676 42.0521 25.2633 42.0977 24.9215 42.0977ZM29.6965 37.8691V42H28.2902V36.7168H29.6135L29.6965 37.8691ZM31.2883 36.6826L31.2639 37.9863C31.1955 37.9766 31.1125 37.9684 31.0148 37.9619C30.9204 37.9521 30.8342 37.9473 30.7561 37.9473C30.5575 37.9473 30.385 37.9733 30.2385 38.0254C30.0953 38.0742 29.9748 38.1475 29.8772 38.2451C29.7828 38.3428 29.7111 38.4616 29.6623 38.6016C29.6167 38.7415 29.5907 38.901 29.5842 39.0801L29.301 38.9922C29.301 38.6504 29.3352 38.3363 29.4035 38.0498C29.4719 37.7601 29.5712 37.5078 29.7014 37.293C29.8348 37.0781 29.9976 36.9121 30.1897 36.7949C30.3817 36.6777 30.6014 36.6191 30.8488 36.6191C30.927 36.6191 31.0067 36.6257 31.0881 36.6387C31.1695 36.6484 31.2362 36.6631 31.2883 36.6826ZM34.1102 42H32.699V36.4775C32.699 36.0283 32.7902 35.6491 32.9725 35.3398C33.158 35.0306 33.4217 34.7962 33.7635 34.6367C34.1085 34.4772 34.5252 34.3975 35.0135 34.3975C35.2902 34.3975 35.5587 34.4251 35.8191 34.4805C36.0796 34.5326 36.3481 34.6009 36.6248 34.6855L36.4197 35.8135C36.2407 35.7581 36.0486 35.7061 35.8436 35.6572C35.6385 35.6084 35.3911 35.584 35.1014 35.584C34.7759 35.584 34.5285 35.6605 34.3592 35.8135C34.1932 35.9632 34.1102 36.1846 34.1102 36.4775V42ZM35.16 36.7168V37.7129H31.9129V36.7168H35.16ZM37.2791 36.7168V42H35.868V36.7168H37.2791ZM40.3402 34.5V42H38.9291V34.5H40.3402Z" fill="white"/>
</svg>
