<svg width="3px" height="4px" viewBox="0 0 42 10" fill="none" xmlns="http://www.w3.org/2000/svg">
<path d="M9.546 0C4.275 0 0 4.15714 0 9.28571C0 14.4143 4.275 18.5714 9.546 18.5714H17.181V14.8571H9.546C6.381 14.8571 3.8175 12.3629 3.8175 9.28571C3.8175 6.20857 6.3825 3.71429 9.546 3.71429H17.181V0H9.546ZM24.8175 0V3.71429H32.454C35.619 3.71429 38.1825 6.20857 38.1825 9.28571C38.1825 12.3629 35.6175 14.8571 32.454 14.8571H24.819V18.5714H32.454C37.725 18.5714 42 14.4143 42 9.28571C42 4.15714 37.725 0 32.454 0H24.8175ZM11.454 7.42857V11.1429H30.546V7.42857H11.454Z" fill="#505050"/>
</svg>
