<svg width="24" height="24" viewBox="0 0 100 100" fill="none" xmlns="http://www.w3.org/2000/svg">
<circle cx="50" cy="50" r="50" fill="#E8F1FF"/>
<path fill-rule="evenodd" clip-rule="evenodd" d="M15 85.25L19 89C21.5 91 21.5 91.5 25 93C25 93 39.625 100 50.5 100C60.0417 100 78 92 78 92C81 90.5 80 90.5 82 88.5L85 85.25C85 73.6125 61.69 67.75 50 67.75C38.31 67.75 15 73.6125 15 85.25ZM50 59C59.6731 59 67.5 51.1731 67.5 41.5C67.5 31.8269 59.6731 24 50 24C40.3269 24 32.5 31.8269 32.5 41.5C32.5 51.1731 40.3269 59 50 59Z" fill="#F5F9FF"/>
<circle cx="85" cy="85" r="15" fill="#167F71"/>
<path fill-rule="evenodd" clip-rule="evenodd" d="M79.96 90.9551H88.36C89.4447 90.9528 90.32 90.0714 90.32 88.9884V84.7665C90.32 84.458 90.0686 84.2065 89.76 84.2065C89.4514 84.2065 89.2 84.458 89.2 84.7665V88.9884C89.2022 89.4543 88.8259 89.8328 88.36 89.8351H79.96C79.4941 89.8328 79.1178 89.4543 79.12 88.9884V80.6018C79.1178 80.1359 79.4941 79.7573 79.96 79.7551H84.16C84.4686 79.7551 84.72 79.5036 84.72 79.1951C84.72 78.8865 84.4686 78.6351 84.16 78.6351H79.96C78.8747 78.6373 78 79.5188 78 80.6018V88.9884C78 90.0714 78.8747 90.9528 79.96 90.9551Z" fill="white"/>
<path fill-rule="evenodd" clip-rule="evenodd" d="M84.3527 83.8195L88.1456 80.0176L88.9285 80.805L85.1333 84.6091L84.1293 84.8303L84.3527 83.8195ZM89.3356 78.8276C89.5562 78.6154 89.9062 78.6154 90.1274 78.8276C90.3441 79.0483 90.3441 79.3983 90.1274 79.6195L89.7315 80.0154L88.9397 79.2235L89.3356 78.8276ZM83.2937 83.4191L82.8519 85.4423C82.8127 85.6305 82.8693 85.8254 83.0053 85.9587C83.1409 86.0903 83.3329 86.1468 83.5189 86.1099L85.5405 85.668C85.6429 85.6439 85.7393 85.5913 85.816 85.5146L90.9193 80.4113C91.5756 79.755 91.5756 78.6921 90.9193 78.0358C90.2545 77.4013 89.2085 77.4013 88.5437 78.0358L83.4489 83.1435C83.3727 83.2203 83.3178 83.3138 83.2937 83.4191Z" fill="white"/>
</svg>
